# xmcd
#
# Track frame offsets: 
#        150
#        19410
#        35562
#        58477
#        79585
#        100882
#        121485
#        142745
#        155252
#        171885
#
# Disc length: 2561 seconds
#
# Revision: 1
# Processed by: cddbd v1.5.2PL0 Copyright (c) Steve Scherf et al.
# Submitted via: ExactAudioCopy v1.0b3
#
DISCID=8109ff0a
DTITLE=Varios Artists - Paraquenopares 6  Salsa
DYEAR=1999
DGENRE=Salsa
TTITLE0=Celia Cruz - Cal y arena
TTITLE1=Oscar d'Leon - Me voy pa'cali
TTITLE2=Jose Alberto "El Canario" - A la hora que me llamen voy
TTITLE3=Miles Peña - Este amor tan loco
TTITLE4=Yanko - Pensnado en ti
TTITLE5=Tito Nieves - Amores como tu
TTITLE6=Tito Nieves - Enseñame
TTITLE7=Miles Peña - Hazmelo otra vez
TTITLE8=Isaac Delgado - La Sandunguita
TTITLE9=Manny Manuel - Niña bonita
EXTD=YEAR: 1999
EXTT0=
EXTT1=
EXTT2=
EXTT3=
EXTT4=
EXTT5=
EXTT6=
EXTT7=
EXTT8=
EXTT9=
PLAYORDER=
